<svg xmlns="http://www.w3.org/2000/svg" viewBox="0 0 95 88" fill="currentColor"><path d="M47.2 0C22 0 1.4 20.6 1.4 45.8c0 10.4 3.5 20.1 9.3 27.8.9 1.2 1.9 2.4 2.9 3.4H59c1-.9 1.9-2 2.7-3.1l.2-.3c6-7.8 9.5-17.5 9.5-27.9C71.4 20.6 50.8 0 47.2 0zM18.7 29c0-1.8 1.5-3.3 3.3-3.3s3.3 1.5 3.3 3.3v14.7c0 1.8-1.5 3.3-3.3 3.3s-3.3-1.5-3.3-3.3V29zm51.9 0c0-1.8 1.5-3.3 3.3-3.3s3.3 1.5 3.3 3.3v14.7c0 1.8-1.5 3.3-3.3 3.3s-3.3-1.5-3.3-3.3V29zm-8.5 39.6c-4.1 4.1-9.3 6.1-14.5 6.1s-10.4-2-14.5-6.1c-1.3-1.3-1.3-3.3 0-4.6 1.3-1.3 3.3-1.3 4.6 0 2.7 2.7 6.2 4 9.9 4s7.2-1.3 9.9-4c1.3-1.3 3.3-1.3 4.6 0 1.3 1.3 1.3 3.4 0 4.6z"/></svg> 