<svg xmlns="http://www.w3.org/2000/svg" viewBox="0 0 32 32" fill="currentColor"><path d="M29.71 13.09A8.09 8.09 0 0 0 20.34 2.68a8.08 8.08 0 0 0-13.7 2.9A8.08 8.08 0 0 0 2.3 18.9a8 8 0 0 0 3 15.18h.1a8.07 8.07 0 0 0 13.5-2.81A8.09 8.09 0 0 0 29.71 13.09zm-9.37 6.84a4 4 0 0 1-.63.45 4.12 4.12 0 0 1-1 .5 4.07 4.07 0 0 1-1.15.17 4.13 4.13 0 0 1-1-.13 4 4 0 0 1-1-.39 4.14 4.14 0 0 1-.85-.64 4.1 4.1 0 0 1-.64-.85 4 4 0 0 1-.39-1 4.13 4.13 0 0 1-.13-1 4.07 4.07 0 0 1 .17-1.15 4.12 4.12 0 0 1 .5-1 4 4 0 0 1 .45-.63 4.14 4.14 0 0 1 .85-.64 4 4 0 0 1 1-.39 4.13 4.13 0 0 1 1-.13A4.07 4.07 0 0 1 19.68 14a4.12 4.12 0 0 1 1 .5 4.14 4.14 0 0 1 .85.64 4 4 0 0 1 .45.63 4.12 4.12 0 0 1 .5 1 4.07 4.07 0 0 1 .17 1.15 4.13 4.13 0 0 1-.13 1 4 4 0 0 1-.39 1 4.14 4.14 0 0 1-.64.85z"/></svg> 